<svg xmlns="http://www.w3.org/2000/svg" xmlns:xlink="http://www.w3.org/1999/xlink" width="0" height="0" style="position:absolute">
	
		<symbol id="icon_arrow-next" viewBox="0 0 25 17">
			<path d="M24.847 8.132L17.035.319a.52.52 0 1 0-.737.737l6.924 6.923H.52a.52.52 0 1 0 0 1.042h22.7l-6.923 6.923a.52.52 0 1 0 .737.737l7.813-7.813a.52.52 0 0 0 0-.736z" fill="#2C3E50"></path>
		</symbol>
	
		<symbol id="icon_arrow-prev" viewBox="0 0 25 17">
			<path d="M.153 8.132L7.965.319a.52.52 0 1 1 .737.737L1.778 7.979H24.48a.52.52 0 1 1 0 1.042H1.78l6.923 6.923a.52.52 0 1 1-.737.737L.153 8.868a.52.52 0 0 1 0-.736z" fill="#2C3E50"></path>
		</symbol>
	
		<symbol id="icon_benefits-corporate-holiday" viewBox="0 0 49 61">
			<path d="M39.492 7.632c-4.8-3.293-10.847-4.251-16.73-2.689C21.588 2.187 18.854.25 15.674.25c-4.244 0-7.697 3.455-7.697 7.701 0 2.098.846 4 2.21 5.39-.33.424-.655.854-.957 1.295C3.28 23.31 3.647 34.3 10.024 41.7 7.506 44.29.22 52.154 1.004 55.656c.49 2.198 4.669 5.161 7.101 5.161.132 0 .258-.009.379-.026 3.506-.521 8.188-10.014 9.776-13.45 9.272 3.254 19.68-.342 25.59-8.954 7.14-10.41 5.185-24.206-4.358-30.755zm-23.818-5.44a5.764 5.764 0 0 1 5.758 5.758 5.762 5.762 0 0 1-5.758 5.755A5.76 5.76 0 0 1 9.92 7.95a5.762 5.762 0 0 1 5.754-5.757zm2.439 43.018l-.868-.348-.381.854c-3.91 8.765-7.421 12.968-8.665 13.152-1.338.202-5.004-2.315-5.299-3.636-.274-1.227 2.348-5.98 9.035-12.704l.777-.78-.646-.685C8.76 37.56 7.056 33.051 6.96 28.38l24.847 17.047c-4.388 1.564-9.215 1.58-13.695-.216zm24.134-7.922c-2.206 3.215-5.094 5.665-8.313 7.241l-26.89-18.45c.33-3.552 1.578-7.12 3.788-10.344.28-.407.577-.804.884-1.195a7.64 7.64 0 0 0 3.958 1.109c4.246 0 7.7-3.454 7.7-7.698a7.71 7.71 0 0 0-.093-1.135c5.327-1.409 10.79-.548 15.112 2.42 8.66 5.941 10.389 18.526 3.854 28.052z"></path>
		</symbol>
	
		<symbol id="icon_benefits-education" viewBox="0 0 57 60">
			<path d="M55.644 18.382L29.047.651a.971.971 0 0 0-1.078 0L1.37 18.382a.972.972 0 0 0 0 1.617l4.04 2.693v14.194c0 .33.168.639.447.818l22.28 14.284a.972.972 0 0 0 1.072-.016l11.625-7.93v5.53l-4.33 8.66a.976.976 0 0 0 .041.947c.177.285.49.46.827.46h8.867a.973.973 0 0 0 .868-1.406l-4.33-8.661v-6.856l7.369-5.028a.972.972 0 0 0 .423-.802V23.38L55.644 20a.972.972 0 0 0 0-1.617zM38.946 57.696l2.86-5.722 2.862 5.722h-5.722zm-10.3-7.691L7.354 36.355V23.987L27.97 37.73a.97.97 0 0 0 1.078 0l11.788-7.859V41.69l-12.189 8.316zm19.982-13.632l-5.85 3.99V28.578l5.85-3.9v11.696zm.634-14.454a.963.963 0 0 0-.372.248l-7.083 4.722-12.76-8.507A.971.971 0 1 0 27.969 20l12.086 8.058-11.547 7.698L3.66 19.191 28.508 2.627 53.354 19.19l-4.092 2.728z"></path>
		</symbol>
	
		<symbol id="icon_benefits-health" viewBox="0 0 43 53">
			<path d="M35.437 1.694h-.001c-3.364-1.607-6.98-.324-9.887.707-1.486.527-2.89 1.025-3.93 1.025-1.041 0-2.445-.498-3.931-1.025C14.782 1.37 11.165.088 7.8 1.694 2.803 4.085-.844 9.679 1.852 15.744c.835 1.884 1.613 3.323 2.24 4.48 1.21 2.236 1.941 3.586 1.941 5.9 0 3.596 1.077 15.37 5.86 22.061 2.416 3.383 4.952 4.554 5.06 4.603a.969.969 0 0 0 1.295-1.246c-.035-.085-3.432-8.594-1.407-14.128 1.13-3.068 3.315-4.794 4.671-4.65.07.008.143.008.213 0 1.368-.145 3.542 1.582 4.669 4.648 2.028 5.536-1.374 14.044-1.409 14.13a.968.968 0 0 0 1.295 1.246c.107-.049 2.647-1.22 5.063-4.603C36.124 41.492 37.2 29.72 37.2 26.123c0-2.313.73-3.662 1.94-5.9.627-1.156 1.405-2.595 2.24-4.477 2.698-6.062-.947-11.658-5.943-14.052zM39.61 14.96c-.805 1.814-1.532 3.158-2.173 4.343-1.262 2.332-2.174 4.018-2.174 6.82 0 4.32-1.343 15.124-5.496 20.938a15.282 15.282 0 0 1-2.014 2.306c.926-3.222 1.965-8.502.457-12.621-1.272-3.462-3.936-5.927-6.327-5.927-.089 0-.177.004-.265.01-2.456-.196-5.273 2.327-6.595 5.917-1.507 4.117-.47 9.395.455 12.618a15.277 15.277 0 0 1-2.01-2.304c-4.156-5.813-5.5-16.616-5.5-20.937 0-2.802-.912-4.488-2.175-6.82-.641-1.186-1.368-2.529-2.173-4.344-1.61-3.62-.726-8.771 5.014-11.518 2.639-1.262 5.703-.175 8.407.784 1.648.585 3.204 1.136 4.577 1.136 1.374 0 2.93-.551 4.578-1.136 2.703-.959 5.765-2.044 8.406-.785 5.74 2.752 6.62 7.9 5.008 11.52z"></path><path d="M12.142 7.558a.968.968 0 0 0-.006-1.935c-.098 0-2.402.02-3.996 1.764-1.125 1.232-1.596 2.962-1.398 5.14.422 4.736 4.594 8.299 4.771 8.449a.964.964 0 0 0 1.364-.117.968.968 0 0 0-.117-1.364c-.038-.032-3.738-3.19-4.09-7.14-.146-1.607.153-2.834.887-3.648 1.003-1.113 2.557-1.149 2.585-1.149z"></path>
		</symbol>
	
		<symbol id="icon_benegits-office" viewBox="0 0 59 59">
			<path d="M51.325.148H7.448c-3.932 0-7.13 3.2-7.13 7.131v30.198c0 3.93 3.198 7.13 7.13 7.13h15.59V56.68H10.953a.971.971 0 1 0 0 1.943H47.82a.971.971 0 1 0 0-1.943H35.736V44.606h15.589c3.93 0 7.128-3.198 7.128-7.13V7.28c0-3.932-3.197-7.13-7.128-7.13zM7.448 2.092h43.877a5.192 5.192 0 0 1 5.185 5.187v22.897H2.261V7.279a5.193 5.193 0 0 1 5.187-5.187zM33.793 56.68h-8.812V44.606h8.812V56.68zm17.532-14.017H7.45a5.193 5.193 0 0 1-5.188-5.186V32.12h54.25v5.357a5.191 5.191 0 0 1-5.186 5.186z"></path><path d="M29.387 33.955a3.64 3.64 0 0 0-3.638 3.635 3.64 3.64 0 0 0 3.638 3.635 3.639 3.639 0 0 0 3.635-3.635 3.639 3.639 0 0 0-3.635-3.635zm0 5.327c-.934 0-1.695-.76-1.695-1.692a1.694 1.694 0 0 1 3.386 0c0 .933-.759 1.692-1.691 1.692z"></path>
		</symbol>
	
</svg>
